inDegrees=no
num_controls=7
num_derivatives=13
num_iterations=79
num_multipliers=7
num_parameters=0
num_slacks=7
num_states=26
objective=0.495642
objective_accelerations=0.075959
objective_balance=0.002623
objective_effort=0.065896
objective_height=0.340282
objective_ligament=0.010881
solver_duration=1078.361133
status=Solve_Succeeded
success=true
DataType=double
version=3
OpenSimVersion=4.5
endheader
time	/jointset/ground_pelvis/pelvis_tilt/value	/jointset/ground_pelvis/pelvis_tx/value	/jointset/ground_pelvis/pelvis_ty/value	/jointset/hip_l/hip_flexion_l/value	/jointset/hip_l/hip_adduction_l/value	/jointset/hip_l/hip_rotation_l/value	/jointset/back/lumbar_extension/value	/jointset/patellofemoral_l/patellar_flexion_l/value	/jointset/knee_l/knee_flexion_l/value	/jointset/knee_l/knee_adduction_l/value	/jointset/knee_l/knee_rotation_l/value	/jointset/ankle_l/ankle_angle_l/value	/jointset/subtalar_l/subtalar_angle_l/value	/jointset/ground_pelvis/pelvis_tilt/speed	/jointset/ground_pelvis/pelvis_tx/speed	/jointset/ground_pelvis/pelvis_ty/speed	/jointset/hip_l/hip_flexion_l/speed	/jointset/hip_l/hip_adduction_l/speed	/jointset/hip_l/hip_rotation_l/speed	/jointset/back/lumbar_extension/speed	/jointset/patellofemoral_l/patellar_flexion_l/speed	/jointset/knee_l/knee_flexion_l/speed	/jointset/knee_l/knee_adduction_l/speed	/jointset/knee_l/knee_rotation_l/speed	/jointset/ankle_l/ankle_angle_l/speed	/jointset/subtalar_l/subtalar_angle_l/speed	/forceset/tau_hip_flexion_l	/forceset/tau_hip_adduction_l	/forceset/tau_hip_rotation_l	/forceset/tau_knee_flexion_l	/forceset/tau_ankle_angle_l	/forceset/tau_subtalar_angle_l	/forceset/tau_lumbar_extension	lambda_cid13_p0	lambda_cid13_p1	lambda_cid13_p2	lambda_cid13_p3	lambda_cid13_p4	lambda_cid13_p5	lambda_cid14_p0	/jointset/ground_pelvis/pelvis_tilt/accel	/jointset/ground_pelvis/pelvis_tx/accel	/jointset/ground_pelvis/pelvis_ty/accel	/jointset/hip_l/hip_flexion_l/accel	/jointset/hip_l/hip_adduction_l/accel	/jointset/hip_l/hip_rotation_l/accel	/jointset/back/lumbar_extension/accel	/jointset/patellofemoral_l/patellar_flexion_l/accel	/jointset/knee_l/knee_flexion_l/accel	/jointset/knee_l/knee_adduction_l/accel	/jointset/knee_l/knee_rotation_l/accel	/jointset/ankle_l/ankle_angle_l/accel	/jointset/subtalar_l/subtalar_angle_l/accel	gamma_cid13_p0	gamma_cid13_p1	gamma_cid13_p2	gamma_cid13_p3	gamma_cid13_p4	gamma_cid13_p5	gamma_cid14_p0
0	-0.03627813787301262	0.0564401030210198	0.9203513162005307	0.3085816938045678	-0.2954853382549351	-0.2981933862764365	-0.3879492264334186	0.2499269421184919	0.2499269421184919	-0.17453069772998	-0.1711833775170502	-0.0008036623358878681	0.0005545766025354175	0	0	0	0	0	0	0	0	0	0	0	0	0	0.1101927035985832	-0.03098728969909308	-0.01864300610956328	-0.233936443741171	0.1410664910343621	-0.03486977020004101	-0.04721494909767046	2.515856148211623	11.72714634768811	1.075699915838797	44.46263524276285	-583.296377263779	-54.37425390289101	-23.08395411023904	-2.593709341091389	-3.560115794270474	-1.484066045943394	15.7249261695703	-0.6875474000446857	4.522755317169435	-9.811684367108937	13.69950463178586	13.69950463178587	2.931597630575042	-0.2158560613805453	1.563036673301028	-0.2282743909865306	1.486506937550019e-07	8.268965849842437e-07	-4.842691866864331e-07	-3.884902397689313e-08	6.435215533668002e-07	4.661182341612985e-07	1.42679798467928e-07
0.01	-0.03640372585348575	0.05626551274546923	0.9202785219308194	0.309348029276417	-0.2955232450836955	-0.297969014623261	-0.3884261990861211	0.2505954788213242	0.2505954788213242	-0.174396889895893	-0.171192407255473	-0.0007295226716370313	0.0005381461431756051	-0.02524797575847316	-0.03460194802919525	-0.01452426793575238	0.1523184511023707	-0.007826713347405532	0.04450101309203269	-0.09344007983169494	0.1326983694597708	0.132698369459771	0.02591381691429333	-0.001951765444442063	0.01463704811363303	-0.003601772256761478	0.08831672790534731	-0.03027134210377403	-0.01547691950458955	-0.2104030760270453	0.1113606579424404	-0.02057585745800984	-0.02793736269563837	-6.775025591449542	7.005602439206507	1.988887460650565	47.01070107860297	-590.0376877987255	-62.09451682189928	-23.09171829555082	-2.509912474172033	-3.36282601491158	-1.431290562103389	14.84300587015419	-0.867109879912218	4.357895255792039	-8.817002184876459	12.90362890111018	12.90362890111019	2.294207529541475	-0.2068228818395319	1.385427701305378	-0.4735559077537382	1.282579688901101e-08	4.856308179736259e-07	5.363041377247923e-08	2.072058178156248e-08	2.039720586367905e-07	9.09363519615798e-08	4.213399408844349e-08
0.02	-0.03678570774773294	0.05575438464809323	0.9200615483028082	0.3116090895172066	-0.2956467943614948	-0.2973108086490507	-0.389778939015876	0.2525607243783617	0.2525607243783617	-0.1740293571311261	-0.1712253518675129	-0.0005147347620676773	0.0004762125083016217	-0.05127878275481645	-0.06730756436509171	-0.02883587165999398	0.2989449537880911	-0.0171284898077603	0.08676686420693949	-0.1751534554104574	0.259341770841041	0.2593417708410409	0.04674498613598653	-0.004782974723423928	0.02812964906370356	-0.00910063510283423	0.06644075221211135	-0.029555394508455	-0.01231083289961545	-0.1868697083129196	0.08165482485051868	-0.006281944715978642	-0.008659776293606357	-15.95719225147748	2.269848757608636	2.898826621601739	49.46748584535629	-595.1050755883321	-69.68568960651331	-23.11475262954243	-2.750275588665416	-3.180849455610713	-1.44153320364124	14.58653648624024	-0.982560022634533	4.07572292174426	-7.466343516522437	12.48851101608573	12.48851101608566	1.915068092055016	-0.3917448282885059	1.334147240588526	-0.6076925088487849	-1.229990999769798e-07	1.443650509630081e-07	5.915300142313915e-07	8.029018754001809e-08	-2.355774360932192e-07	-2.842455302381389e-07	-5.841181029104098e-08
0.03	-0.03742853942773251	0.05492450996316128	0.9197022019432557	0.3153111794563853	-0.2958659477222714	-0.2962378069083338	-0.3919084047401252	0.2557683516914894	0.2557683516914894	-0.1734678328451421	-0.1712873500511345	-0.0001674148995381335	0.0003558556832256582	-0.07701515025986309	-0.09846534754832711	-0.04301695420993649	0.4407249301407304	-0.02649100611107583	0.1277160347791893	-0.2506790204175532	0.3817463939268585	0.3817463939268579	0.06576974856577765	-0.007466116657296538	0.04145541040025878	-0.01471060217071652	0.06583448803112639	-0.0261025718283022	-0.01284847013464792	-0.1922388499613241	0.09371014066632644	-0.01171921040213051	-0.007196302584655001	-12.19281384941067	4.02146539731433	2.563228990053688	45.46089071193619	-594.8210871075894	-65.57082560747249	-23.15206018670226	-2.44446874917808	-3.052922690012247	-1.403977766031068	13.86149499421941	-0.8815170037910769	4.086808215282296	-7.5865626395287	12.05085536478996	12.05085536478994	1.927740762042433	-0.1839155332322102	1.349956539675824	-0.4987211052219709	-1.207612300011565e-07	1.90302971250157e-07	5.031191851336956e-07	1.08691445767874e-07	-3.241585610418466e-07	-2.310140252561035e-07	-3.874092472345605e-08
0.04	-0.0383205650663333	0.05378912145833055	0.9192015283611318	0.3204086225159791	-0.2961724101600033	-0.2947588546438311	-0.3947913060437904	0.2601869087174674	0.2601869087174674	-0.1727097488461399	-0.1713716429855539	0.0003167957682543237	0.000187184727578068	-0.1011175744750614	-0.1284103283448541	-0.05710131617428793	0.5780155778711151	-0.03459030519883165	0.1679569689641217	-0.3258405712936592	0.5015277134110839	0.5015277134110834	0.08605692873962088	-0.009241924882992501	0.05550781011628614	-0.01876346121715958	0.06522822385014145	-0.02264974914815604	-0.01338610736968043	-0.1976079916097286	0.1057654564821342	-0.01715647608828243	-0.005732828875703598	-8.332125096732103	5.761132934874768	2.223919476624959	41.36440336684007	-593.0711572639038	-61.33526711356048	-23.20177803650827	-2.423486930695741	-2.938288978269015	-1.422189086522693	13.68867076178933	-0.7299165795225609	3.9340756442812	-7.393540690324461	11.96385029576732	11.96385029576732	2.167551640865557	-0.2102780866532247	1.479474916482954	-0.2962709045609366	-1.156767050389041e-07	2.442244727187033e-07	4.017947389317395e-07	1.364500576548928e-07	-4.055032247578681e-07	-1.689492545589803e-07	-1.65913445177872e-08
0.05	-0.03944830403940492	0.05236123643370001	0.9185599253399608	0.3268563530974109	-0.2965556717323208	-0.292884053894591	-0.3984143350648918	0.2657875860880126	0.2657875860880125	-0.1717479026968809	-0.1714720969721046	0.0009437001034103794	-1.690210609411018e-05	-0.1243879652224925	-0.1568769184705043	-0.07125074200885342	0.7107070642550887	-0.04207744730021652	0.2067565660723	-0.3978048019514439	0.6179037821712317	0.6179037821712318	0.1059395682180018	-0.01083535482773362	0.06985683549610397	-0.02207505306269441	0.0556613070849475	-0.02112142504140977	-0.01249707560198411	-0.1929049556632187	0.1033622661179589	-0.01464131434591937	0.003182948906131266	-8.897925799584984	4.775705639293573	2.372068879817963	39.16500796588824	-593.1639671634343	-61.91068398864571	-23.2616859895092	-2.272478655637525	-2.757352798777408	-1.416119182241538	12.9358550294069	-0.760511503792812	3.815858698670722	-6.953799607231486	11.36889152641518	11.3688915264153	1.842787369898657	-0.1317855622607632	1.410185670401097	-0.351859557564584	-1.551379590796624e-07	2.059889424528703e-07	5.344114593695646e-07	1.668179488574928e-07	-5.292339764135798e-07	-2.534772609004099e-07	-3.560089916241117e-08
